<?xml version="1.0" encoding="UTF-8"?>
<svg version="1.1" xmlns="http://www.w3.org/2000/svg" width="600" height="600">
<path d="M0 0 C198 0 396 0 600 0 C600 198 600 396 600 600 C402 600 204 600 0 600 C0 402 0 204 0 0 Z " fill="#FEFEFE" transform="translate(0,0)"/>
<path d="M0 0 C3.79372134 2.24290957 7.13685444 4.82999751 10.375 7.8125 C10.478125 6.719375 10.58125 5.62625 10.6875 4.5 C11.375 0.8125 11.375 0.8125 12.4375 -1.125 C15.62859548 -2.87495559 18.88286391 -2.83523492 22.375 -2.1875 C25.34358157 0.01990681 26.20365791 1.29847373 27.375 4.8125 C27.47416543 6.86023271 27.51327317 8.91106111 27.52026367 10.96118164 C27.52664352 12.23002701 27.53302338 13.49887238 27.53959656 14.8061676 C27.5411262 16.19499676 27.54223964 17.58382644 27.54296875 18.97265625 C27.54618414 20.40172865 27.54954843 21.83080072 27.55305481 23.25987244 C27.55904593 26.26008872 27.56089496 29.26027621 27.56030273 32.26049805 C27.56020164 36.08100278 27.57379879 39.90131945 27.59107494 43.72177982 C27.60227189 46.67743249 27.60421952 49.633041 27.60369301 52.58871269 C27.60486368 53.99553507 27.60923345 55.40235894 27.61702538 56.80916023 C27.68074813 69.51325466 27.44052441 80.16541365 18.375 89.8125 C10.11617361 95.87453419 2.64295774 96.01847365 -7.3125 96.0625 C-8.45912109 96.083125 -9.60574219 96.10375 -10.78710938 96.125 C-20.53319138 96.16963003 -27.88706377 95.20162546 -35.125 88.25 C-35.9603125 87.46496094 -36.795625 86.67992187 -37.65625 85.87109375 C-40.05266529 83.36531824 -40.56188307 82.3931758 -40.9375 78.9375 C-40.625 75.8125 -40.625 75.8125 -39.125 73.4375 C-36.32744505 71.61908928 -34.12955118 71.0087669 -30.77734375 71.15234375 C-27.11387127 72.27598594 -25.03545972 74.93388445 -22.58203125 77.76953125 C-19.39018756 81.10153574 -16.91016392 82.6591822 -12.28515625 83.2109375 C-10.50431641 83.19933594 -10.50431641 83.19933594 -8.6875 83.1875 C-6.91052734 83.19910156 -6.91052734 83.19910156 -5.09765625 83.2109375 C-1.22796999 82.7669465 1.13036192 81.961546 4.375 79.8125 C8.36074368 73.40760174 8.94985464 66.17383304 8.375 58.8125 C7.93929687 59.21082031 7.50359375 59.60914063 7.0546875 60.01953125 C6.16136719 60.81423828 6.16136719 60.81423828 5.25 61.625 C4.66992188 62.14707031 4.08984375 62.66914063 3.4921875 63.20703125 C-1.92299933 67.31338141 -6.39017196 68.34424868 -13 68.25 C-14.13489868 68.2353772 -14.13489868 68.2353772 -15.29272461 68.22045898 C-23.64923302 67.95392531 -28.01592639 65.705124 -33.875 59.75 C-37.9471857 54.91777964 -39.94239254 49.8489731 -41.625 43.8125 C-41.81707031 43.20277344 -42.00914062 42.59304688 -42.20703125 41.96484375 C-44.1221294 32.10298318 -43.51047236 20.35893222 -38.3359375 11.640625 C-29.4052835 -1.06287213 -14.75577221 -7.14206326 0 0 Z " fill="#929493" transform="translate(191.625,222.1875)"/>
<path d="M0 0 C2.18838501 1.02101135 2.18838501 1.02101135 4 3 C4.39147543 5.969335 4.52632937 8.5684983 4.48583984 11.53881836 C4.48963654 12.41065262 4.49343323 13.28248688 4.49734497 14.18074036 C4.50476433 17.06747221 4.4833471 19.95320107 4.4609375 22.83984375 C4.45855358 24.84379457 4.45764764 26.84774765 4.4581604 28.85169983 C4.45502991 33.05418871 4.43844671 37.25633703 4.41162109 41.45874023 C4.37766288 46.84701442 4.36999178 52.23491378 4.37151146 57.62328243 C4.37096765 61.76253339 4.3599984 65.90170231 4.34550858 70.04092598 C4.33914136 72.0276585 4.33520186 74.01440033 4.33372116 76.0011425 C4.32938614 78.77818508 4.31188006 81.55482995 4.29052734 84.33178711 C4.29143372 85.15425934 4.29234009 85.97673157 4.29327393 86.8241272 C4.21302478 93.95943246 4.21302478 93.95943246 2 97 C-1.20270544 98.60135272 -4.52463384 98.48861584 -8 98 C-10.4375 96.375 -10.4375 96.375 -12 94 C-12.37813684 92.00798503 -12.7167216 90.00770129 -13 88 C-13.73605469 88.55429687 -14.47210938 89.10859375 -15.23046875 89.6796875 C-16.69419922 90.76636719 -16.69419922 90.76636719 -18.1875 91.875 C-19.63189453 92.95394531 -19.63189453 92.95394531 -21.10546875 94.0546875 C-28.32502624 98.9066978 -35.58627925 98.70786362 -44 98 C-51.16140758 96.14003878 -56.82619206 90.69603521 -60.51171875 84.4296875 C-66.41851032 72.81920321 -67.97654258 56.47207721 -63.94140625 43.859375 C-59.9876018 35.50173958 -53.51244259 29.53657035 -45 26 C-42.30925317 25.68758065 -39.92929002 25.52274507 -37.25 25.5625 C-36.54770264 25.56862305 -35.84540527 25.57474609 -35.12182617 25.58105469 C-26.50685879 25.8383065 -20.6331256 28.61909143 -14 34 C-13.98018066 33.20827393 -13.96036133 32.41654785 -13.93994141 31.60083008 C-13.8445284 28.0043924 -13.73491409 24.40852249 -13.625 20.8125 C-13.5940625 19.56662109 -13.563125 18.32074219 -13.53125 17.03710938 C-13.49257813 15.83505859 -13.45390625 14.63300781 -13.4140625 13.39453125 C-13.3826416 12.28956299 -13.3512207 11.18459473 -13.31884766 10.04614258 C-12.90038346 6.04830351 -12.01557074 3.12841194 -9.3125 0.125 C-5.89176652 -1.53914061 -3.62825203 -0.90706301 0 0 Z " fill="#929493" transform="translate(448,194)"/>
<path d="M0 0 C9.56278713 5.71303386 14.94496799 13.00677898 18.42578125 23.44921875 C18.54921347 26.19056227 18.61092415 28.89541237 18.61328125 31.63671875 C18.62552734 32.36697266 18.63777344 33.09722656 18.65039062 33.84960938 C18.67729647 43.97517399 15.66774875 52.70392416 8.7578125 60.27734375 C-0.75239914 68.89529297 -11.19691967 70.20219653 -23.60302734 69.61962891 C-31.54402448 68.93312705 -37.88746309 65.30398091 -43.5625 59.86328125 C-52.52526266 49.10796606 -53.468786 36.84141675 -52.57421875 23.44921875 C-50.71699111 14.08778756 -44.42763675 7.12960521 -36.98828125 1.48828125 C-26.49559014 -4.77206386 -11.15683345 -4.94509725 0 0 Z " fill="#929493" transform="translate(317.57421875,222.55078125)"/>
<path d="M0 0 C1.82153405 1.24919411 3.61723217 2.53756795 5.375 3.875 C6.06078125 4.34164063 6.7465625 4.80828125 7.453125 5.2890625 C13.23403723 9.58704507 17.1779649 16.37704992 19.01953125 23.296875 C20.68739515 35.39347029 19.27392495 44.81239556 12.0625 54.6875 C8.8843117 58.52021965 5.68811266 61.39996489 1.375 63.875 C0.74335937 64.266875 0.11171875 64.65875 -0.5390625 65.0625 C-8.29839279 69.24730735 -17.29870711 69.05862064 -25.75390625 67.1796875 C-35.7676555 63.8649833 -42.75406966 58.25658477 -47.625 48.875 C-51.90021495 39.27568197 -53.66765668 29.62631047 -49.9375 19.5625 C-47.97230552 15.23347728 -45.65252714 11.53990127 -42.625 7.875 C-41.965 7.875 -41.305 7.875 -40.625 7.875 C-40.625 7.215 -40.625 6.555 -40.625 5.875 C-38.4296875 4.21875 -38.4296875 4.21875 -35.5 2.375 C-34.54867187 1.7665625 -33.59734375 1.158125 -32.6171875 0.53125 C-22.78110618 -4.91326499 -9.86819415 -5.64430802 0 0 Z " fill="#E52223" transform="translate(81.625,339.125)"/>
<path d="M0 0 C9.00255054 4.68911829 15.78867668 11.69414439 19.6953125 21.140625 C21.94049396 29.7102613 21.70436045 40.05456207 17.84765625 48.078125 C12.22896923 57.60329559 4.92998776 64.68344463 -5.89453125 67.84375 C-15.1044688 69.53223855 -24.35909864 69.28579375 -32.47265625 64.31640625 C-42.08299003 57.13335207 -48.1294957 49.15837917 -50.47265625 37.31640625 C-51.67311779 28.04942874 -49.04720811 19.58621785 -43.66015625 12.00390625 C-32.62525089 -1.52007551 -16.691193 -7.03432069 0 0 Z " fill="#F59E1C" transform="translate(197.47265625,338.68359375)"/>
<path d="M0 0 C8.88314332 6.25692792 14.92017864 14.22274388 17 25 C18.04887578 36.05065556 15.04730807 45.44141819 8 54 C1.3066757 61.01205403 -6.02631227 65.49353106 -15.796875 66.203125 C-27.40010883 66.38730331 -36.15054005 63.34716622 -44.7578125 55.37109375 C-52.48584766 47.00229185 -54.33289742 37.5924007 -54.20703125 26.5390625 C-53.6351954 16.7639062 -49.16713779 9.91588161 -42.15234375 3.2421875 C-29.46409932 -7.12726072 -14.19140505 -7.62921399 0 0 Z " fill="#714998" transform="translate(436,341)"/>
<path d="M0 0 C8.18531074 5.0371143 14.83982278 11.94212739 18.0390625 21.11328125 C20.37846756 31.16242372 18.55933799 41.11487644 13.41015625 49.96875 C7.89954386 58.07932492 0.91786834 63.95805662 -8.765625 66.390625 C-19.83207016 68.06990348 -28.97378983 66.53620272 -38.43359375 60.4296875 C-45.48202192 54.8960531 -50.69716884 46.59693866 -52.33984375 37.78125 C-53.33418966 26.67772067 -51.58549457 18.03034586 -45.12890625 8.91796875 C-33.58909828 -4.86429099 -15.90121655 -8.28243667 0 0 Z " fill="#277EC0" transform="translate(551.33984375,340.21875)"/>
<path d="M0 0 C6.62434926 5.46235697 12.2390226 12.31362038 13.44042969 21.07226562 C14.3270739 32.86848867 12.10567549 42.46916097 5.16796875 52.0859375 C-1.03710331 59.24670146 -9.22883205 63.42741718 -18.62109375 64.53125 C-26.26163244 64.76092551 -32.27233085 64.08000455 -38.83203125 60.0859375 C-40.37890625 59.2196875 -40.37890625 59.2196875 -41.95703125 58.3359375 C-48.73040778 53.03503413 -54.77934063 46.08621796 -56.58203125 37.5234375 C-56.68778775 36.04570477 -56.76747094 34.56604237 -56.83203125 33.0859375 C-56.91839844 32.03019531 -57.00476563 30.97445312 -57.09375 29.88671875 C-57.58741639 19.91465772 -55.29669885 12.86874506 -49.19140625 4.9609375 C-35.98500676 -9.35628064 -15.87142273 -10.7268926 0 0 Z " fill="#2DAA5E" transform="translate(321.83203125,342.9140625)"/>
<path d="M0 0 C1.19818359 -0.02449219 2.39636719 -0.04898438 3.63085938 -0.07421875 C12.31770264 -0.10293559 17.66612344 0.99338789 24.4375 6.6875 C29.20047278 12.37660638 31.17853422 16.43399923 31.2265625 23.890625 C31.23835541 24.58710144 31.25014832 25.28357788 31.26229858 26.00115967 C31.29728285 28.20933665 31.30668962 30.41656995 31.3125 32.625 C31.3343383 35.5262822 31.36817276 38.42712401 31.4140625 41.328125 C31.42471237 42.02569916 31.43536224 42.72327332 31.44633484 43.44198608 C31.56511593 48.48187397 32.16312099 53.25649511 33.22045898 58.17919922 C33.90522281 61.39862726 34.1446971 64.10930643 33.6875 67.375 C31.23749553 70.76177089 29.82357554 72.16198584 25.6875 72.9375 C21.08227356 72.07402004 18.75364204 69.69848666 15.875 66.125 C15.2871875 65.25875 15.2871875 65.25875 14.6875 64.375 C10.48127323 65.86753208 6.79164055 67.9857476 2.96875 70.25390625 C-4.0603055 73.70825373 -15.54492077 73.94309759 -22.9609375 71.50390625 C-28.43214901 68.30712558 -32.3084319 63.38720429 -34.3125 57.375 C-34.6555176 50.5146479 -34.02925608 45.19934065 -30.375 39.1875 C-23.19834759 31.4367154 -8.54822982 30.31629263 1.32958984 27.94433594 C4.78768523 27.10935163 8.23742998 26.24249165 11.6875 25.375 C11.45489375 21.42069383 10.96864305 18.83064563 8.875 15.4375 C3.96420017 12.25992364 -0.62973574 12.58152893 -6.3125 13.375 C-11.94697989 15.04255747 -14.84730966 18.93736276 -18.05078125 23.66796875 C-19.3125 25.375 -19.3125 25.375 -21.3125 26.375 C-24.81587981 26.75580215 -26.67528626 26.77745078 -29.6875 24.875 C-31.95061088 21.39329095 -32.04403423 18.34838593 -31.3125 14.375 C-28.32610687 7.88284103 -22.35577344 4.26924831 -16.04980469 1.31494141 C-10.87782297 -0.46102449 -5.41697378 0.00577195 0 0 Z " fill="#929493" transform="translate(534.3125,219.625)"/>
<path d="M0 0 C1.71993164 -0.04350586 1.71993164 -0.04350586 3.47460938 -0.08789062 C12.12798096 -0.1522832 18.44312902 1.1160631 25.1875 6.6875 C29.39092078 11.87996096 30.75277891 16.3472504 30.75390625 22.94921875 C30.77371803 24.0293499 30.77371803 24.0293499 30.79393005 25.13130188 C30.83455634 27.42090674 30.85638701 29.71011856 30.875 32 C30.96892378 45.11817602 30.96892378 45.11817602 32.84765625 58.08154297 C33.60381618 61.71063407 33.76709509 64.61079713 33.3125 68.3125 C30.76255852 71.31243115 29.18367244 72.16730459 25.3125 72.8125 C21.54265877 72.18419313 19.96537226 71.03906315 17.3125 68.3125 C16.60157519 66.66422571 15.92774356 64.99882666 15.3125 63.3125 C14.35988281 63.79460937 13.40726563 64.27671875 12.42578125 64.7734375 C11.15890841 65.41156604 9.89197829 66.04958086 8.625 66.6875 C7.99916016 67.00460937 7.37332031 67.32171875 6.72851562 67.6484375 C4.93088457 68.55195887 3.12185971 69.43270133 1.3125 70.3125 C0.09046875 70.90804687 0.09046875 70.90804687 -1.15625 71.515625 C-7.78216816 73.6015622 -17.82668539 73.61809586 -24.25 70.9375 C-29.02241744 67.91886625 -32.29890991 63.35749181 -34.6875 58.3125 C-35.95876951 52.11275813 -34.81264235 46.80843999 -31.6875 41.3125 C-24.7971854 32.59827859 -13.55693829 31.1440661 -3.25 29.0625 C-1.97189453 28.794375 -0.69378906 28.52625 0.62304688 28.25 C9.94973693 26.3125 9.94973693 26.3125 12.3125 26.3125 C12.1103938 24.70469991 11.87467135 23.10110345 11.625 21.5 C11.49738281 20.60667969 11.36976562 19.71335938 11.23828125 18.79296875 C10.48946518 16.14442064 10.48946518 16.14442064 8.09375 14.51953125 C2.68906683 12.17395948 -3.53337223 12.14909222 -9.0703125 14.19140625 C-13.96055126 17.0084069 -16.63469256 20.64350039 -19.6875 25.3125 C-22.56220493 26.74985246 -24.50644588 26.69422649 -27.6875 26.3125 C-30.46140544 23.8305846 -31.5200448 22.14977602 -32.25 18.5 C-31.25780026 12.87753483 -28.86457703 8.94091141 -24.26953125 5.50390625 C-15.9751098 0.39493469 -9.6339762 0.07988372 0 0 Z " fill="#929493" transform="translate(67.6875,219.6875)"/>
<path d="M0 0 C4.15422393 2.79958569 7.61888159 6.42526317 9.875 10.9375 C10.14182499 14.34800853 10.10658934 17.76772001 10.125 21.1875 C10.145625 22.12980469 10.16625 23.07210938 10.1875 24.04296875 C10.22322237 30.41048081 9.6681808 34.97013421 5.12109375 39.80078125 C4.52425781 40.27902344 3.92742187 40.75726563 3.3125 41.25 C2.41337891 41.98669922 2.41337891 41.98669922 1.49609375 42.73828125 C-2.43414047 45.64570752 -6.39217166 45.51214358 -11.125 44.9375 C-16.97442982 41.95760179 -20.51557809 37.95462669 -22.875 31.875 C-25.33773597 23.69762806 -25.25793632 15.50134576 -21.33203125 7.84375 C-16.13378773 -0.36577375 -9.19843245 -3.12746703 0 0 Z " fill="#FCFCFC" transform="translate(307.125,234.0625)"/>
<path d="M0 0 C5.56415284 2.44485504 9.58386299 6.03107344 13 11 C15.23469431 19.30847886 15.45218779 29.39979873 11.3125 37.08984375 C8.3264076 41.43567465 5.6586785 44.38096441 0.3828125 45.609375 C-4.94450516 45.99305993 -8.34711012 45.3089734 -12.5 41.875 C-16.60429522 37.96200667 -19.07924597 33.68579928 -19.3984375 27.9765625 C-19.41149003 26.52607935 -19.40305941 25.07527046 -19.375 23.625 C-19.36412354 22.86985107 -19.35324707 22.11470215 -19.34204102 21.33666992 C-19.16380023 15.12514681 -18.84055243 9.97205948 -14.3125 5.234375 C-9.54496358 0.98332169 -6.59297439 -0.63802978 0 0 Z " fill="#FCFDFC" transform="translate(420,233)"/>
<path d="M0 0 C4.52896626 3.00390619 9.15455765 6.84186374 10.60546875 12.26171875 C11.7328618 20.08649624 12.41686687 28.473072 8.2109375 35.453125 C5.4452764 38.98603402 1.24001539 42.66843146 -3.26953125 43.3359375 C-9.04237939 43.42461412 -12.53765958 43.03735562 -17 39 C-22.34232715 32.32209106 -23.53642863 25.44390809 -23.37890625 17.07421875 C-22.69301866 11.50933692 -20.5660231 6.41847678 -16.4375 2.52734375 C-11.10672342 -1.19087291 -6.13042785 -1.79957721 0 0 Z " fill="#FCFCFC" transform="translate(190,234)"/>
<path d="M0 0 C0.45486774 6.36814833 -0.35884286 10.68012756 -4 16 C-8.55139915 20.4346966 -12.72405641 22.09348531 -19 22.4375 C-22.74820217 22.34812409 -23.83807405 22.10905217 -27.0625 19.9375 C-29.39490782 16.4012688 -30.07569753 14.2390619 -30 10 C-27.81097031 5.93827438 -25.42302232 4.56622649 -21.19140625 3.1640625 C-19.32027905 2.63247725 -17.44364436 2.1199705 -15.5625 1.625 C-14.62083984 1.35300781 -13.67917969 1.08101563 -12.70898438 0.80078125 C-8.00246429 -0.49459125 -4.81369518 -1.24110202 0 0 Z " fill="#FBFBFB" transform="translate(81,258)"/>
<path d="M0 0 C0.58153199 6.30639138 0.39492716 11.06101116 -3.39453125 16.3046875 C-7.57903584 20.72336145 -12.19041939 22.21442473 -18.1875 22.5 C-21.72193411 22.35862264 -22.94539605 22.03343099 -26.0625 20.125 C-28.54182897 17.40573597 -28.94887446 16.38709336 -29.4375 12.6875 C-29 9 -29 9 -26.875 6.3125 C-19.35243425 0.91626519 -9.02808164 -0.62262632 0 0 Z " fill="#FBFBFB" transform="translate(547,258)"/>
<path d="M0 0 C0.66 0.33 1.32 0.66 2 1 C-1.3 4.3 -4.6 7.6 -8 11 C-8 8 -8 8 -6 5 C-5.34 5 -4.68 5 -4 5 C-4 4.34 -4 3.68 -4 3 C-2 1.375 -2 1.375 0 0 Z " fill="#E83E3F" transform="translate(45,342)"/>
</svg>
