<?xml version="1.0" encoding="UTF-8"?>
<svg version="1.1" xmlns="http://www.w3.org/2000/svg" width="600" height="600">
<path d="M0 0 C198 0 396 0 600 0 C600 198 600 396 600 600 C402 600 204 600 0 600 C0 402 0 204 0 0 Z " fill="#FEFEFE" transform="translate(0,0)"/>
<path d="M0 0 C1.07443359 -0.00515625 2.14886719 -0.0103125 3.25585938 -0.015625 C4.37412109 -0.00015625 5.49238281 0.0153125 6.64453125 0.03125 C7.74345703 0.01578125 8.84238281 0.0003125 9.97460938 -0.015625 C17.90463196 0.02220457 24.46389362 1.10236008 30.61328125 6.3828125 C31.05671875 6.96804688 31.50015625 7.55328125 31.95703125 8.15625 C32.42109375 8.74664062 32.88515625 9.33703125 33.36328125 9.9453125 C35.90665386 13.63320278 36.03002194 17.17652077 35.45703125 21.53125 C34.37938677 24.36070518 32.96472213 26.91204979 31.45703125 29.53125 C30.78293667 30.86084344 30.11420827 32.19321391 29.45703125 33.53125 C30.40578125 34.27375 31.35453125 35.01625 32.33203125 35.78125 C35.89235746 38.56759225 37.26027566 40.96548971 37.828125 45.484375 C37.95268143 51.66823547 37.98341417 56.76730138 34.22265625 61.87890625 C28.30142986 67.42023095 20.72595168 69.66342869 12.8203125 69.62890625 C10.8722168 69.62407227 10.8722168 69.62407227 8.88476562 69.61914062 C7.51302017 69.61078531 6.14127538 69.60232037 4.76953125 69.59375 C3.3860693 69.58873335 2.00260562 69.58417073 0.61914062 69.58007812 C-2.7682727 69.56827529 -6.15559908 69.55181019 -9.54296875 69.53125 C-9.63566827 61.12544233 -9.70673289 52.71984839 -9.75021744 44.31365585 C-9.77108844 40.41025482 -9.79939632 36.5072036 -9.84472656 32.60400391 C-9.88820302 28.8368308 -9.91210952 25.06999405 -9.92247772 21.30258942 C-9.92986598 19.86564081 -9.94429381 18.42871053 -9.96588898 16.99190521 C-9.99494078 14.97883575 -9.9966028 12.96542747 -9.99707031 10.95214844 C-10.00595276 9.80631287 -10.01483521 8.66047729 -10.02398682 7.47991943 C-9.0628679 1.58820319 -5.57179487 0.02593902 0 0 Z " fill="#0B347D" transform="translate(39.54296875,256.46875)"/>
<path d="M0 0 C0.825 0.474375 1.65 0.94875 2.5 1.4375 C4.74500075 1.19479722 5.90484992 1.03265008 7.5 -0.5625 C9.18608966 -0.63455511 10.87500659 -0.64636068 12.5625 -0.625 C13.48160156 -0.61597656 14.40070313 -0.60695313 15.34765625 -0.59765625 C16.05792969 -0.58605469 16.76820313 -0.57445312 17.5 -0.5625 C17.60188499 6.39334524 17.67166837 13.34899618 17.71972656 20.30541992 C17.73977282 22.66909985 17.76701719 25.03273061 17.80175781 27.39624023 C17.85058271 30.80464857 17.87303948 34.21239803 17.890625 37.62109375 C17.91127014 38.66833115 17.93191528 39.71556854 17.95318604 40.79454041 C17.95562408 48.86710644 15.92354892 54.3982518 11.8125 61.25 C5.15904406 67.54380967 -3.52320651 68.71502724 -12.3046875 68.671875 C-16.96438242 68.33008809 -21.1386858 67.05851944 -25.5 65.4375 C-26.35938291 61.97642364 -26.57904723 60.66585866 -25.375 57.1875 C-23.5 54.4375 -23.5 54.4375 -21.1875 53.5 C-18.15755022 53.42953605 -15.4902727 53.92971784 -12.5 54.4375 C-5.89948933 54.75246865 -5.89948933 54.75246865 0.5 53.4375 C1.30212628 51.56362784 1.30212628 51.56362784 1.6875 49.375 C1.84605469 48.64152344 2.00460937 47.90804687 2.16796875 47.15234375 C2.27753906 46.58644531 2.38710938 46.02054687 2.5 45.4375 C1.736875 45.9325 0.97375 46.4275 0.1875 46.9375 C-5.4163377 49.2170272 -10.91433215 49.41540941 -16.77734375 47.81640625 C-23.50576828 44.91065669 -27.44407187 39.23096745 -30.375 32.6875 C-32.75075928 25.38848052 -32.59415272 17.94633745 -29.3125 11 C-23.03714427 0.00050006 -12.191373 -5.44257723 0 0 Z " fill="#0E367F" transform="translate(348.5,276.5625)"/>
<path d="M0 0 C1.36125 1.0828125 1.36125 1.0828125 2.75 2.1875 C4.08103163 3.1905616 5.41393102 4.19115796 6.75 5.1875 C7.28109375 4.76597656 7.8121875 4.34445312 8.359375 3.91015625 C9.41898438 3.08837891 9.41898438 3.08837891 10.5 2.25 C11.19609375 1.70472656 11.8921875 1.15945313 12.609375 0.59765625 C16.91492668 -2.2386652 21.70271817 -2.33968224 26.75 -1.8125 C32.01343082 0.04518147 34.58422673 2.75541742 37.75 7.1875 C39.09760865 11.35047845 38.87522894 15.56044909 38.84765625 19.890625 C38.8462413 20.72841492 38.84482635 21.56620483 38.84336853 22.42938232 C38.83778197 25.09879157 38.82523194 27.7681162 38.8125 30.4375 C38.80748326 32.24999879 38.80292066 34.06249889 38.79882812 35.875 C38.78781694 40.31253248 38.77056155 44.75000191 38.75 49.1875 C37.16820385 49.29617302 35.58422847 49.37339827 34 49.4375 C33.11828125 49.48390625 32.2365625 49.5303125 31.328125 49.578125 C28.75 49.1875 28.75 49.1875 26.45776367 47.6315918 C24.11556106 44.27951312 24.22096021 41.90088333 24.17578125 37.83203125 C24.16161667 37.12978928 24.14745209 36.4275473 24.13285828 35.70402527 C24.09103763 33.46919282 24.07572869 31.23516833 24.0625 29 C24.03346846 26.75449429 23.99898633 24.50919407 23.96000671 22.26383972 C23.92723225 20.23438022 23.90919741 18.20469879 23.8918457 16.17504883 C24.09130432 13.30454559 24.09130432 13.30454559 22.75 12.1875 C18.41708571 11.68754835 16.43600495 11.68045286 12.875 14.3125 C9.47576907 18.91145949 9.62707454 23.87763483 9.43359375 29.4609375 C9.37075195 31.19150391 9.37075195 31.19150391 9.30664062 32.95703125 C9.26732422 34.14683594 9.22800781 35.33664062 9.1875 36.5625 C9.12272461 38.38201172 9.12272461 38.38201172 9.05664062 40.23828125 C8.95094549 43.22123284 8.85000567 46.20435225 8.75 49.1875 C4.13 49.1875 -0.49 49.1875 -5.25 49.1875 C-5.26981934 48.17324951 -5.28963867 47.15899902 -5.31005859 46.11401367 C-5.38613023 42.35106576 -5.47484491 38.58850377 -5.56738281 34.82592773 C-5.60566618 33.19742451 -5.64052024 31.56883691 -5.671875 29.94018555 C-5.71754002 27.59913986 -5.77553077 25.2586747 -5.8359375 22.91796875 C-5.84748871 22.18974411 -5.85903992 21.46151947 -5.87094116 20.71122742 C-5.97878512 17.01788626 -6.14884276 15.33923586 -8.25 12.1875 C-11.62183542 11.43647465 -11.62183542 11.43647465 -15.25 12.1875 C-18.27933238 14.63871551 -20.01708889 17.48876667 -21.25 21.1875 C-21.40070797 23.32411258 -21.4985966 25.46462124 -21.56640625 27.60546875 C-21.60830078 28.85908203 -21.65019531 30.11269531 -21.69335938 31.40429688 C-21.73267578 32.71462891 -21.77199219 34.02496094 -21.8125 35.375 C-21.85570992 36.71029978 -21.899325 38.04558652 -21.94335938 39.38085938 C-22.04956434 42.64961234 -22.15029785 45.91854223 -22.25 49.1875 C-26.87 49.1875 -31.49 49.1875 -36.25 49.1875 C-36.25 32.6875 -36.25 16.1875 -36.25 -0.8125 C-27.25 -0.8125 -27.25 -0.8125 -24.6875 0.5 C-23.25 2.1875 -23.25 2.1875 -23.25 5.1875 C-22.71890625 4.76597656 -22.1878125 4.34445312 -21.640625 3.91015625 C-20.58101563 3.08837891 -20.58101563 3.08837891 -19.5 2.25 C-18.80390625 1.70472656 -18.1078125 1.15945313 -17.390625 0.59765625 C-12.05502752 -2.91721727 -5.48613699 -3.0595764 0 0 Z " fill="#0997D0" transform="translate(531.25,276.8125)"/>
<path d="M0 0 C4.82590823 3.8516211 9.72432402 8.56560516 11.9375 14.4375 C12.75982088 22.84248496 13.38367255 31.47660597 8.42578125 38.7109375 C4.37534382 43.40987017 -0.68891335 47.71345116 -6.99438477 48.75732422 C-9.13116054 48.91207113 -11.23273454 48.95654871 -13.375 48.9375 C-14.1275708 48.93105469 -14.8801416 48.92460937 -15.65551758 48.91796875 C-21.77105296 48.71700423 -26.412606 47.64262153 -31.0625 43.4375 C-38.01215973 35.94395386 -39.65404114 29.23436969 -39.3671875 19.10546875 C-38.78576478 12.10603364 -36.29600564 8.35746743 -31.25 3.625 C-22.56382222 -3.31760195 -10.06961716 -6.39395046 0 0 Z " fill="#0796D0" transform="translate(478.0625,277.5625)"/>
<path d="M0 0 C4.83608406 4.08547234 7.59842419 9.53763296 8.3203125 15.76171875 C8.64794253 24.29102041 7.10264708 31.35438968 1.5 37.9375 C0.675 38.618125 -0.15 39.29875 -1 40 C-1.66 40.556875 -2.32 41.11375 -3 41.6875 C-10.04174632 46.30864602 -18.87091661 45.99823671 -27 45 C-30.35147441 43.90564101 -32.5000229 42.45644516 -35 40 C-35.83917969 39.22076172 -35.83917969 39.22076172 -36.6953125 38.42578125 C-41.82100759 33.11437257 -44.03738731 26.88069016 -44.4375 19.5625 C-44.17700064 12.47939842 -41.16456055 4.88539512 -36 0 C-23.67641583 -7.99552319 -12.51098231 -8.19685048 0 0 Z " fill="#0C357E" transform="translate(125,281)"/>
<path d="M0 0 C5.31442025 3.20145798 11.54490944 7.83557683 13.57421875 13.9375 C15.0478189 22.81012406 15.07536991 31.26786198 10.43359375 39.15234375 C6.72878256 44.17960723 1.31629228 48.48985096 -5.00268555 49.47583008 C-7.1543932 49.61023271 -9.27403511 49.63964231 -11.4296875 49.609375 C-12.18483643 49.60107666 -12.93998535 49.59277832 -13.71801758 49.58422852 C-21.38244282 49.35101753 -26.0624328 47.5213383 -31.3671875 41.921875 C-37.44832285 34.05119573 -38.05116416 25.96483527 -37.0546875 16.171875 C-35.01770886 8.19050588 -28.61072507 3.29182048 -21.8046875 -0.765625 C-14.75462534 -2.76314261 -6.81565548 -3.02284302 0 0 Z " fill="#0C357E" transform="translate(174.0546875,276.828125)"/>
<path d="M0 0 C11 0 11 0 13.66308594 1.53808594 C15.51791527 4.95373586 15.45218546 7.51231628 15.390625 11.390625 C15.38496521 12.09523865 15.37930542 12.79985229 15.37347412 13.52581787 C15.35115078 15.76791428 15.30096754 18.00838988 15.25 20.25 C15.22992952 21.77341435 15.2116797 23.29685386 15.1953125 24.8203125 C15.15130118 28.5473983 15.08230372 32.27354087 15 36 C18.56893186 34.87780523 18.56893186 34.87780523 21.23168945 32.39599609 C21.52261475 31.77805176 21.81354004 31.16010742 22.11328125 30.5234375 C27.76984486 19.77390315 27.76984486 19.77390315 32.02197266 18.29833984 C36.75386198 17.67764285 41.31718207 18.21565705 46 19 C44.72931889 21.64616441 43.34984518 24.07804483 41.6875 26.49609375 C41.25179687 27.13740234 40.81609375 27.77871094 40.3671875 28.43945312 C39.45754882 29.76882508 38.54609606 31.09695758 37.6328125 32.42382812 C37.19710937 33.06642578 36.76140625 33.70902344 36.3125 34.37109375 C35.91675781 34.94786865 35.52101562 35.52464355 35.11328125 36.11889648 C33.74830956 38.42527957 32.71274575 40.40290194 32 43 C32.78100324 45.510619 32.78100324 45.510619 34.359375 47.90625 C34.89820313 48.81503906 35.43703125 49.72382813 35.9921875 50.66015625 C36.57226562 51.59730469 37.15234375 52.53445313 37.75 53.5 C38.87241565 55.36300497 39.99229618 57.22754013 41.109375 59.09375 C41.61436523 59.91552734 42.11935547 60.73730469 42.63964844 61.58398438 C43.99896824 63.99816758 45.03149649 66.40731956 46 69 C32.27823257 69.93204458 32.27823257 69.93204458 28 66.8125 C27.03515625 65.19140625 27.03515625 65.19140625 26 63 C24.81766434 60.74728194 23.6297019 58.49751215 22.4375 56.25 C21.87933594 55.12078125 21.32117188 53.9915625 20.74609375 52.828125 C19.103904 49.61351919 19.103904 49.61351919 15 48 C15 54.93 15 61.86 15 69 C10.05 69 5.1 69 0 69 C0 46.23 0 23.46 0 0 Z " fill="#103880" transform="translate(193,257)"/>
<path d="M0 0 C3.5 1.75 3.5 1.75 6 4 C6.7425 4.598125 7.485 5.19625 8.25 5.8125 C12.36857384 10.9607173 12.28183627 17.26097198 12.1953125 23.55859375 C12.1924826 24.34774673 12.18965271 25.13689972 12.18673706 25.94996643 C12.17563057 28.44597172 12.15054455 30.94160498 12.125 33.4375 C12.11495785 35.13996874 12.10583417 36.84244316 12.09765625 38.54492188 C12.0757226 42.69675576 12.04125977 46.84831502 12 51 C10.25215533 51.13560864 8.50126074 51.23227209 6.75 51.3125 C5.77546875 51.37050781 4.8009375 51.42851562 3.796875 51.48828125 C1 51 1 51 -1.32348633 48.91894531 C-3.36277364 45.36838188 -3.525612 43.06519353 -3.57421875 38.984375 C-3.58838333 38.32794006 -3.60254791 37.67150513 -3.61714172 36.99517822 C-3.65884473 34.91328225 -3.67425105 32.83225385 -3.6875 30.75 C-3.71654631 28.65386477 -3.7510209 26.55794854 -3.78999329 24.4619751 C-3.82272259 22.57082544 -3.84078983 20.67943908 -3.8581543 18.78808594 C-3.68297198 16.09360623 -3.68297198 16.09360623 -5 15 C-8.05397552 14.55830933 -10.95030077 14.52283617 -14 15 C-16.75569447 17.18159145 -18.43588747 18.87177494 -20 22 C-20.15469367 24.17674783 -20.25002106 26.3578348 -20.31640625 28.5390625 C-20.35830078 29.84101563 -20.40019531 31.14296875 -20.44335938 32.484375 C-20.48317299 33.86458045 -20.52288522 35.24478883 -20.5625 36.625 C-20.60569407 38.01303415 -20.64930865 39.40105528 -20.69335938 40.7890625 C-20.79971934 44.19258129 -20.90038918 47.596277 -21 51 C-25.62 51 -30.24 51 -35 51 C-35 34.5 -35 18 -35 1 C-26 1 -26 1 -23.4375 2.375 C-22 4 -22 4 -22 6 C-21.52949219 5.65066406 -21.05898438 5.30132812 -20.57421875 4.94140625 C-19.95160156 4.48636719 -19.32898438 4.03132813 -18.6875 3.5625 C-18.07261719 3.11003906 -17.45773437 2.65757812 -16.82421875 2.19140625 C-11.84021929 -1.06366834 -5.71277062 -0.5523606 0 0 Z " fill="#0E377F" transform="translate(301,275)"/>
<path d="M0 0 C3 2 3 2 5 5 C5.402427 8.70546417 5.29243452 12.28933084 5 16 C1.9471466 16.2935436 -0.95750133 16.44139877 -4 16 C-6.4375 13.5625 -6.4375 13.5625 -8 11 C-11.22859847 9.38570077 -14.50993653 9.40429343 -18 10 C-21.02508145 11.73602105 -23.41790069 13.83580137 -25 17 C-25.73126697 24.92123723 -25.73126697 24.92123723 -23.125 32.1875 C-19.0381284 35.67336107 -15.42606168 35.3797975 -10.19921875 35.3671875 C-5.38804069 34.8149888 -1.90364072 32.76015 2 30 C6.86157839 35.83725848 6.86157839 35.83725848 7.3125 39.625 C4.75720231 44.24887201 -0.17552856 46.14857999 -4.8125 48.3125 C-12.82899605 50.04154817 -20.55435809 49.519758 -28 46 C-34.22417759 41.85054827 -38.36122601 36.35679835 -40 29 C-40.94777422 19.86482677 -40.21745332 13.3100578 -34.4921875 6.1015625 C-25.36418084 -3.96047275 -12.12222637 -6.1674485 0 0 Z " fill="#0998D0" transform="translate(430,278)"/>
<path d="M0 0 C10 0 10 0 13.09448242 1.34667969 C16.08214398 5.50682137 15.61902237 9.46011534 15.48828125 14.453125 C15.47766914 15.97616241 15.47766914 15.97616241 15.46684265 17.52996826 C15.43886958 20.77073053 15.37612355 24.0097606 15.3125 27.25 C15.28742099 29.4478917 15.26460714 31.64581051 15.24414062 33.84375 C15.18903293 39.22983337 15.10273817 44.61462308 15 50 C10.05 50 5.1 50 0 50 C0 33.5 0 17 0 0 Z " fill="#163E83" transform="translate(243,276)"/>
<path d="M0 0 C3.92260896 2.11217406 6.64360669 4.22704655 9 8 C9.97973769 13.8207945 9.36715712 19.06951993 6 24 C2.22953199 27.41059688 -0.65511942 27.56386632 -5.58984375 27.42578125 C-9.27608253 26.77456565 -10.81936107 24.93023356 -13 22 C-15.83731989 17.74402016 -15.63822452 13.99683101 -15 9 C-11.46188132 2.05012403 -7.92802484 -0.95683058 0 0 Z " fill="#F6F8FA" transform="translate(110,287)"/>
<path d="M0 0 C4.72731194 2.62628441 6.48827137 5.87691963 8 11 C8.28824583 15.86626792 7.66616877 19.65955526 4.5625 23.5 C0.76102806 27.20875311 -1.60899744 27.3385788 -6.7421875 27.2890625 C-10.07940122 26.86180676 -11.73210517 25.40534301 -14 23 C-17.12361595 18.31457607 -16.833821 13.47636674 -16 8 C-12.3016765 1.29537059 -7.61936006 -1.02568308 0 0 Z " fill="#F7FBFD" transform="translate(469,287)"/>
<path d="M0 0 C3.2044343 2.52263977 5.73211647 5.08108727 7 9 C7.4850824 14.23888993 6.85631117 17.56779301 4 22 C1.71237611 24.63423357 0.08238464 25.80920073 -3.37109375 26.41796875 C-8.01435707 26.67324474 -10.27007184 26.55117024 -14.0625 23.6875 C-17.76851915 18.54689279 -17.63941453 13.13137225 -17 7 C-13.1785404 -0.77939989 -8.04169526 -2.24018654 0 0 Z " fill="#F7F8FB" transform="translate(168,288)"/>
<path d="M0 0 C2.87029869 1.79393668 4.49131638 2.98263276 6 6 C7.0181919 16.21530231 7.0181919 16.21530231 4.125 20.625 C1.25825599 23.82900801 0.55649715 23.94526258 -3.8125 24.375 C-7.38479686 24.34252457 -7.93435394 24.05167881 -10.9375 21.6875 C-14.80439638 16.64881683 -14.76090164 11.13197208 -14 5 C-10.59672627 -0.5989342 -6.09502651 -1.22563033 0 0 Z " fill="#F7F8FA" transform="translate(346,288)"/>
<path d="M0 0 C5.44881777 0.07849437 8.24788392 0.69737982 12.25 4.375 C13.88262584 7.64025167 13.89556831 10.85799765 13.25 14.375 C11.13553092 17.4505914 10.62030478 18.17252945 7.25 19.375 C2.21046475 19.78047985 -2.70751374 19.66369196 -7.75 19.375 C-7.80380578 16.58307795 -7.84357669 13.7921859 -7.875 11 C-7.89175781 10.2059375 -7.90851562 9.411875 -7.92578125 8.59375 C-7.94335473 6.52007985 -7.85335168 4.44616759 -7.75 2.375 C-5.09500624 -0.27999376 -3.70036703 0.04602447 0 0 Z " fill="#F1F3F7" transform="translate(50.75,294.625)"/>
<path d="M0 0 C4.68262567 0.0812016 7.79297993 0.91797993 11.1875 4.3125 C11.64768839 8.91438391 11.77993226 11.25928709 9.5 15.3125 C4.32181643 18.43895046 -0.91243217 17.70123068 -6.8125 17.3125 C-6.86633848 14.85387599 -6.90609038 12.3964245 -6.9375 9.9375 C-6.95425781 9.23882812 -6.97101562 8.54015625 -6.98828125 7.8203125 C-7.00594267 5.98352514 -6.91553261 4.14648037 -6.8125 2.3125 C-4.32244323 -0.17755677 -3.43779268 0.01546234 0 0 Z " fill="#F0F3F7" transform="translate(49.8125,267.6875)"/>
<path d="M0 0 C3.5 0.625 3.5 0.625 6.5 2.6875 C8.5 5.625 8.5 5.625 8.5625 9.1875 C7.39590149 12.9617893 6.82199976 14.49551297 3.5 16.625 C0.69302681 17.23596336 -1.69913769 17.28503927 -4.5 16.625 C-7.49097304 14.08267292 -8.34202557 12.4675303 -9.0625 8.625 C-8.05291578 3.24055083 -5.30860823 0.94796576 0 0 Z " fill="#0C99D1" transform="translate(379.5,309.375)"/>
<path d="M0 0 C2.875 1.5625 2.875 1.5625 5 4 C5.6694949 8.09135771 5.38501272 10.24601675 3.5 13.9375 C0.47072721 16.43665005 -1.24727566 16.7459903 -5.09375 16.48046875 C-7 16 -7 16 -9.5 13.9375 C-11.38501272 10.24601675 -11.6694949 8.09135771 -11 4 C-7.6828559 0.19504059 -4.97314546 -0.82885758 0 0 Z " fill="#0D367F" transform="translate(253,255)"/>
<path d="M0 0 C0.66 0.33 1.32 0.66 2 1 C-0.64 3.64 -3.28 6.28 -6 9 C-6 6 -6 6 -3.5625 3.375 C-2.716875 2.59125 -1.87125 1.8075 -1 1 C-0.67 0.67 -0.34 0.34 0 0 Z " fill="#264B8C" transform="translate(92,279)"/>
</svg>
