<?xml version="1.0" encoding="UTF-8"?>
<svg version="1.1" xmlns="http://www.w3.org/2000/svg" width="600" height="600">
<path d="M0 0 C198 0 396 0 600 0 C600 198 600 396 600 600 C402 600 204 600 0 600 C0 402 0 204 0 0 Z " fill="#FEFEFE" transform="translate(0,0)"/>
<path d="M0 0 C8.0284947 5.4105073 12.38135683 12.77732253 15 22 C16.14371695 32.98500235 14.60802077 43.31008918 8.125 52.4375 C2.30507913 59.46505445 -4.88943399 64.60348988 -14 66 C-25.87295424 66.87469832 -33.84109982 65.07746257 -43.15234375 57.69140625 C-50.07399639 51.35509421 -55.22902049 42.44449898 -56 33 C-56.09474609 31.90945313 -56.09474609 31.90945313 -56.19140625 30.796875 C-56.67378962 20.90023559 -53.30935637 12.56061746 -46.98828125 5.0078125 C-34.64779259 -7.45389904 -14.83170124 -8.8497311 0 0 Z " fill="#FF5E05" transform="translate(398,280)"/>
<path d="M0 0 C7.28679398 4.76301474 12.37264358 11.93710504 14.640625 20.38671875 C16.24229218 32.03362465 14.87638323 40.93944482 9.25 51.1875 C1.83504366 60.45619542 -6.25939299 64.97716301 -17.9375 66.34375 C-28.38609269 66.87684146 -36.50280524 63.5291353 -44.484375 56.953125 C-53.15007094 48.02680662 -55.72664533 37.98989536 -55.59863281 25.88085938 C-55.31184948 19.34009456 -53.86242339 14.37135848 -50 9 C-49.1646875 7.6696875 -49.1646875 7.6696875 -48.3125 6.3125 C-35.29256659 -6.70743341 -15.95876126 -9.48834066 0 0 Z " fill="#FF5E05" transform="translate(479,280)"/>
<path d="M0 0 C0 17.16 0 34.32 0 52 C0.66 52 1.32 52 2 52 C2.25668457 51.42113037 2.51336914 50.84226074 2.77783203 50.24584961 C4.11463878 47.78934037 5.61764335 46.07995799 7.5546875 44.06640625 C8.25207031 43.33486328 8.94945312 42.60332031 9.66796875 41.84960938 C10.39628906 41.09486328 11.12460937 40.34011719 11.875 39.5625 C13.31163532 38.06546946 14.74658003 36.56681435 16.1796875 35.06640625 C16.85966797 34.36491455 17.53964844 33.66342285 18.24023438 32.94067383 C20.16633483 30.92953961 20.16633483 30.92953961 21.8984375 27.984375 C24.84819336 25.19910366 27.15831942 25.4852196 31.10546875 25.56054688 C31.97816406 25.60244141 32.85085938 25.64433594 33.75 25.6875 C35.08224609 25.72133789 35.08224609 25.72133789 36.44140625 25.75585938 C38.62932812 25.81467448 40.81379671 25.89678732 43 26 C43.28515625 28.19921875 43.28515625 28.19921875 43 31 C41.05859375 33.39453125 41.05859375 33.39453125 38.4375 35.8125 C34.63897215 39.42377648 31.06468316 43.05918024 27.67578125 47.0546875 C26.47850148 48.44453675 25.24175472 49.80077741 23.98046875 51.1328125 C23.32691406 51.83148438 22.67335938 52.53015625 22 53.25 C21.401875 53.87390625 20.80375 54.4978125 20.1875 55.140625 C18.7962986 56.91869858 18.7962986 56.91869858 19.1171875 59.03125 C20.14488793 61.32311292 21.28245202 62.54791532 23.125 64.25 C26.31075495 67.2997776 29.22410561 70.47673343 32.1015625 73.81640625 C35.00885665 77.16039273 38.00068765 80.42732839 40.984375 83.703125 C41.98210938 84.84007812 41.98210938 84.84007812 43 86 C43.60328125 86.67546875 44.2065625 87.3509375 44.828125 88.046875 C46 90 46 90 45.57324219 92.12207031 C45.2894873 93.05164551 45.2894873 93.05164551 45 94 C28.43161695 95.5169425 28.43161695 95.5169425 23.05078125 92.16015625 C20.76518926 89.5627061 18.88730281 86.89849573 17 84 C15.45744066 82.06724858 13.89481456 80.15034154 12.3125 78.25 C11.57773437 77.33863281 10.84296875 76.42726563 10.0859375 75.48828125 C8.28809022 73.34365818 6.44912089 71.37828917 4.4375 69.4375 C3.633125 68.633125 2.82875 67.82875 2 67 C2 66.34 2 65.68 2 65 C1.34 65 0.68 65 0 65 C0.00785522 66.26444946 0.00785522 66.26444946 0.01586914 67.55444336 C0.03287826 70.67227936 0.04543406 73.79009177 0.05493164 76.90795898 C0.05997057 78.25920386 0.06680177 79.61044326 0.07543945 80.96166992 C0.08752419 82.90020434 0.09269828 84.838778 0.09765625 86.77734375 C0.10551147 88.52905884 0.10551147 88.52905884 0.11352539 90.31616211 C0 93 0 93 -1 94 C-3.51136104 94.09975032 -5.98903415 94.13882183 -8.5 94.125 C-9.20253906 94.12886719 -9.90507813 94.13273437 -10.62890625 94.13671875 C-15.87338622 94.12661378 -15.87338622 94.12661378 -17 93 C-17.1217709 90.27745582 -17.17862583 87.57983366 -17.19287109 84.85595703 C-17.20104858 84.00231567 -17.20922607 83.14867432 -17.21765137 82.26916504 C-17.24255253 79.43205479 -17.25903226 76.59499467 -17.2734375 73.7578125 C-17.27876118 72.79160854 -17.28408485 71.82540459 -17.28956985 70.82992172 C-17.31632039 65.71718894 -17.33569026 60.60448076 -17.35009766 55.49169922 C-17.36676157 50.19948339 -17.41154844 44.90788839 -17.4624691 39.61590767 C-17.49605508 35.55650075 -17.50766553 31.4972428 -17.51332474 27.43770981 C-17.5200599 25.48638024 -17.5353403 23.53506124 -17.55921555 21.58386612 C-17.590689 18.85633363 -17.59093122 16.13049695 -17.58349609 13.40283203 C-17.59990143 12.59232391 -17.61630676 11.7818158 -17.63320923 10.94674683 C-17.60800171 8.69485474 -17.60800171 8.69485474 -17 5 C-14.59463501 3.03634644 -14.59463501 3.03634644 -12 2 C-11.30777344 1.67515625 -10.61554687 1.3503125 -9.90234375 1.015625 C-8.92974609 0.63664063 -8.92974609 0.63664063 -7.9375 0.25 C-6.96103516 -0.14445313 -6.96103516 -0.14445313 -5.96484375 -0.546875 C-4 -1 -4 -1 0 0 Z " fill="#FF5E05" transform="translate(524,250)"/>
<path d="M0 0 C0.33 16.83 0.66 33.66 1 51 C12.65207546 38.6380151 12.65207546 38.6380151 24 26 C27.61077138 25.38955682 29.9200536 25.20522609 33.4375 25.5 C34.26443359 25.53609375 35.09136719 25.5721875 35.94335938 25.609375 C37.96427454 25.70282772 39.98277176 25.84630642 42 26 C42.58398438 27.87402344 42.58398438 27.87402344 43 30 C41.65625 32.015625 41.65625 32.015625 39.5 34.25 C38.68660156 35.11367188 37.87320313 35.97734375 37.03515625 36.8671875 C36.02500915 37.91297871 35.01311238 38.95708116 34 40 C31.99399892 42.06828646 29.99200594 44.13990119 28 46.22167969 C26.63599818 47.64574409 25.26239176 49.06067682 23.87890625 50.46582031 C23.24726563 51.12420898 22.615625 51.78259766 21.96484375 52.4609375 C21.3937085 53.04665527 20.82257324 53.63237305 20.23413086 54.23583984 C18.61785414 56.18743758 18.61785414 56.18743758 19 60 C20.05872873 61.68110416 20.05872873 61.68110416 21.59765625 63.171875 C22.42414673 64.03897095 22.42414673 64.03897095 23.26733398 64.92358398 C23.85973877 65.52630127 24.45214355 66.12901855 25.0625 66.75 C26.26379313 68.00577208 27.46432036 69.2622773 28.6640625 70.51953125 C29.24317383 71.12104004 29.82228516 71.72254883 30.41894531 72.34228516 C32.86657987 74.90859748 35.19578522 77.56751875 37.49609375 80.265625 C38.55994004 81.49250228 39.66051419 82.68797539 40.78515625 83.859375 C41.35105469 84.46265625 41.91695313 85.0659375 42.5 85.6875 C43.0053125 86.20699219 43.510625 86.72648437 44.03125 87.26171875 C45 89 45 89 44.65625 91.70703125 C44.4396875 92.46371094 44.223125 93.22039062 44 94 C29.0758083 95.77317129 29.0758083 95.77317129 24.18066406 92.95117188 C20.49200821 89.81684093 17.78904953 85.92497091 15 82 C13.76905702 80.56674363 12.52157427 79.14733436 11.25 77.75 C10.16534731 76.50114466 9.08219756 75.25098344 8 74 C6.76641002 72.58785552 5.53203315 71.17639805 4.296875 69.765625 C3.67651367 69.05696289 3.05615234 68.34830078 2.41699219 67.61816406 C1.94938477 67.08416992 1.48177734 66.55017578 1 66 C0.97494385 66.81267334 0.9498877 67.62534668 0.92407227 68.46264648 C0.80850882 72.12110752 0.68560416 75.77928528 0.5625 79.4375 C0.52318359 80.71689453 0.48386719 81.99628906 0.44335938 83.31445312 C0.40146484 84.52939453 0.35957031 85.74433594 0.31640625 86.99609375 C0.27974854 88.12200928 0.24309082 89.2479248 0.20532227 90.40795898 C0 93 0 93 -1 94 C-3.51136104 94.09975032 -5.98903415 94.13882183 -8.5 94.125 C-9.20253906 94.12886719 -9.90507812 94.13273437 -10.62890625 94.13671875 C-15.87338622 94.12661378 -15.87338622 94.12661378 -17 93 C-17.1217709 90.27745582 -17.17862583 87.57983366 -17.19287109 84.85595703 C-17.20104858 84.00231567 -17.20922607 83.14867432 -17.21765137 82.26916504 C-17.24255253 79.43205479 -17.25903226 76.59499467 -17.2734375 73.7578125 C-17.27876118 72.79160854 -17.28408485 71.82540459 -17.28956985 70.82992172 C-17.31632039 65.71718894 -17.33569026 60.60448076 -17.35009766 55.49169922 C-17.36676157 50.19948339 -17.41154844 44.90788839 -17.4624691 39.61590767 C-17.49605508 35.55650075 -17.50766553 31.4972428 -17.51332474 27.43770981 C-17.5200599 25.48638024 -17.5353403 23.53506124 -17.55921555 21.58386612 C-17.590689 18.85633363 -17.59093122 16.13049695 -17.58349609 13.40283203 C-17.59990143 12.59232391 -17.61630676 11.7818158 -17.63320923 10.94674683 C-17.60800171 8.69485474 -17.60800171 8.69485474 -17 5 C-14.59463501 3.03634644 -14.59463501 3.03634644 -12 2 C-11.30777344 1.67515625 -10.61554688 1.3503125 -9.90234375 1.015625 C-8.92974609 0.63664063 -8.92974609 0.63664063 -7.9375 0.25 C-6.96103516 -0.14445313 -6.96103516 -0.14445313 -5.96484375 -0.546875 C-4 -1 -4 -1 0 0 Z " fill="#FF5E05" transform="translate(255,250)"/>
<path d="M0 0 C11.0593578 5.04389402 17.34266264 18.49560047 22 29 C22.34160156 29.74765625 22.68320313 30.4953125 23.03515625 31.265625 C25.68417251 37.91896817 25.8709843 44.94414739 25 52 C23.3125 55.375 23.3125 55.375 20 57 C8.4743004 59.39077979 -2.5110096 54.21781685 -13 50 C-13.78536133 49.68514648 -14.57072266 49.37029297 -15.37988281 49.04589844 C-17.5743217 48.15367468 -19.7582687 47.24119763 -21.9375 46.3125 C-22.58114502 46.03978271 -23.22479004 45.76706543 -23.88793945 45.48608398 C-27.72980988 43.78206582 -30.95672938 41.91340935 -34 39 C-35.16866884 33.44882301 -34.01750189 30.52346458 -31.0625 25.75 C-29.73298124 23.81615452 -28.37715274 21.90021809 -27 20 C-26.26652344 18.96875 -25.53304687 17.9375 -24.77734375 16.875 C-11.17276136 -1.79338064 -11.17276136 -1.79338064 0 0 Z " fill="#FF5D03" transform="translate(162,250)"/>
<path d="M0 0 C13.17606405 1.23525601 27.50754229 14.86246348 37.375 23.1171875 C37.90738281 23.56094727 38.43976563 24.00470703 38.98828125 24.46191406 C46.62029843 30.99032979 46.62029843 30.99032979 47.8515625 35.515625 C47.90598996 40.5410942 47.1772189 43.86980287 43.640625 47.53515625 C38.05074338 51.6727647 31.5439718 54.4117184 25.25 57.3046875 C24.26 57.7996875 24.26 57.7996875 23.25 58.3046875 C21.04296875 58.54296875 21.04296875 58.54296875 18.4375 58.6171875 C17.58542969 58.65457031 16.73335937 58.69195312 15.85546875 58.73046875 C12.3185164 58.15246604 10.77494173 56.8169623 8.25 54.3046875 C6.13129395 50.49216496 4.7454192 46.39741374 3.25 42.3046875 C2.899375 41.3971875 2.54875 40.4896875 2.1875 39.5546875 C-0.13192382 33.17627199 -1.63545465 26.68993338 -3 20.0546875 C-3.17539307 19.21486328 -3.35078613 18.37503906 -3.53149414 17.50976562 C-4.54198153 12.35286579 -5.10043781 7.56125463 -4.75 2.3046875 C-2.75 0.3046875 -2.75 0.3046875 0 0 Z " fill="#FFC203" transform="translate(112.75,315.6953125)"/>
<path d="M0 0 C8.65613896 4.57748365 13.95875617 12.87626851 17 22 C17.8393956 29.62288325 17.85256596 36.77276947 13 43 C6.9819554 49.75437006 -0.90000165 54.25967766 -9.875 55.5625 C-13.72983952 54.86862889 -15.31253413 53.83676953 -18 51 C-23.79031127 41.28054894 -23.23589865 28.36708321 -20.875 17.5625 C-18.96356213 10.94459717 -15.84546143 5.47105861 -10.625 0.9375 C-6.90377227 -0.3915099 -3.83046318 -0.93358959 0 0 Z " fill="#04CBD0" transform="translate(52,274)"/>
<path d="M0 0 C0.02312178 12.10841944 0.04091424 24.21683367 0.05181217 36.32527065 C0.05704136 41.94707962 0.06413966 47.56887353 0.07543945 53.19067383 C0.08626706 58.61118277 0.09227656 64.0316772 0.09487724 69.45219612 C0.09673172 71.52514945 0.10035277 73.59810194 0.10573006 75.67104912 C0.1129388 78.56383893 0.11399101 81.45656796 0.11352539 84.34936523 C0.11712067 85.21538864 0.12071594 86.08141205 0.12442017 86.97367859 C0.11405216 92.88594784 0.11405216 92.88594784 -1 94 C-3.51136104 94.09975032 -5.98903415 94.13882183 -8.5 94.125 C-9.20253906 94.12886719 -9.90507812 94.13273437 -10.62890625 94.13671875 C-15.87338622 94.12661378 -15.87338622 94.12661378 -17 93 C-17.1217709 90.27745582 -17.17862583 87.57983366 -17.19287109 84.85595703 C-17.20104858 84.00231567 -17.20922607 83.14867432 -17.21765137 82.26916504 C-17.24255253 79.43205479 -17.25903226 76.59499467 -17.2734375 73.7578125 C-17.27876118 72.79160854 -17.28408485 71.82540459 -17.28956985 70.82992172 C-17.31632039 65.71718894 -17.33569026 60.60448076 -17.35009766 55.49169922 C-17.36676157 50.19948339 -17.41154844 44.90788839 -17.4624691 39.61590767 C-17.49605508 35.55650075 -17.50766553 31.4972428 -17.51332474 27.43770981 C-17.5200599 25.48638024 -17.5353403 23.53506124 -17.55921555 21.58386612 C-17.590689 18.85633363 -17.59093122 16.13049695 -17.58349609 13.40283203 C-17.59990143 12.59232391 -17.61630676 11.7818158 -17.63320923 10.94674683 C-17.60800171 8.69485474 -17.60800171 8.69485474 -17 5 C-14.59463501 3.03634644 -14.59463501 3.03634644 -12 2 C-11.30777344 1.67515625 -10.61554688 1.3503125 -9.90234375 1.015625 C-8.92974609 0.63664063 -8.92974609 0.63664063 -7.9375 0.25 C-6.96103516 -0.14445313 -6.96103516 -0.14445313 -5.96484375 -0.546875 C-3.63905625 -1.08323951 -2.26775306 -0.63823873 0 0 Z " fill="#FF5E05" transform="translate(329,250)"/>
<path d="M0 0 C1.51980469 -0.03867188 1.51980469 -0.03867188 3.0703125 -0.078125 C6.44900105 0.31715333 7.73516325 0.56752522 9.875 3.25 C11.29723578 10.24297196 8.72944348 16.68358223 6.25 23.125 C5.88825684 24.09083008 5.52651367 25.05666016 5.15380859 26.05175781 C-0.9919569 42.1169569 -0.9919569 42.1169569 -6.125 47.25 C-9.16864088 47.29742217 -11.2469504 47.00232492 -13.60839844 44.97900391 C-15.17014352 43.23429949 -16.59339058 41.43458776 -18 39.5625 C-18.77283325 38.55896484 -18.77283325 38.55896484 -19.5612793 37.53515625 C-32.24122915 20.72597806 -32.24122915 20.72597806 -32 13.51171875 C-31.00112797 9.78824488 -29.66950836 8.41203209 -26.421875 6.37890625 C-18.07409667 2.27600159 -9.28135256 0.14242485 0 0 Z " fill="#5043CA" transform="translate(105.125,223.75)"/>
<path d="M0 0 C4.11003771 -0.38173725 6.72465411 -0.2884892 10.28515625 1.9375 C15.32055165 6.25123648 18.2637114 9.65145571 19.08203125 16.37890625 C19.23010212 23.65179903 18.84817885 28.89656254 13.7109375 34.328125 C7.89041388 38.86813342 2.94887278 40.16048756 -4.2890625 39.328125 C-9.82090793 37.60491124 -12.51269696 34.11450395 -15.34375 29.23046875 C-18.02662002 23.83146999 -17.85218616 18.22528109 -17.2890625 12.328125 C-15.6015625 8.890625 -15.6015625 8.890625 -13.2890625 6.328125 C-12.5053125 5.4 -11.7215625 4.471875 -10.9140625 3.515625 C-7.22514146 0.44152414 -4.57577162 0.65591266 0 0 Z " fill="#FFFBF9" transform="translate(377.2890625,290.671875)"/>
<path d="M0 0 C5.37583693 -0.32433405 9.06293012 0.074159 13.2421875 3.62109375 C18.38196752 9.19714157 19.37517499 14.84004858 19.1015625 22.3125 C18.35463917 27.92574196 16.3026609 31.67164611 12.27734375 35.59375 C6.84174941 39.04071227 2.11420938 40.11511504 -4.28515625 39.21875 C-9.40755853 36.70776849 -15.00272357 31.92014254 -16.9375 26.3359375 C-17.84557781 20.80584569 -17.93837417 15.25525293 -16.22265625 9.90625 C-13.24118459 5.77066027 -9.81322623 2.17531702 -4.97265625 0.34375 C-3.31294271 0.26655402 -1.65394708 0.15832656 0 0 Z " fill="#FFFBFA" transform="translate(458.28515625,290.78125)"/>
<path d="M0 0 C2.96858157 2.20740681 3.82865791 3.48597373 5 7 C5.27287645 11.39572872 5.31322326 15.79328686 5.35009766 20.19628906 C5.36666016 21.64534564 5.39395506 23.0943204 5.43212891 24.54296875 C5.48706506 26.64105216 5.50879062 28.73723063 5.5234375 30.8359375 C5.5531665 32.71611572 5.5531665 32.71611572 5.58349609 34.63427734 C4.84349681 38.90274182 3.36358191 40.35877733 0 43 C-5.99153466 44.00645202 -9.43688496 41.3035344 -14.23828125 38.07421875 C-19.36608817 34.22292388 -24.48508064 30.03823634 -27 24 C-27.55010542 19.78252508 -27.01857377 17.09406773 -24.46484375 13.640625 C-17.80597354 6.18269036 -10.5016671 -1.35505382 0 0 Z " fill="#FF5E05" transform="translate(75,324)"/>
<path d="M0 0 C6.44851898 -0.40303244 11.10070492 0.30909347 17 3 C17.66 3.66 18.32 4.32 19 5 C18.77286834 9.99689646 16.93011419 13.03016787 14 17 C8.60987228 16.19444245 6.1885431 12.07424951 3 8 C0 3.64516129 0 3.64516129 0 0 Z " fill="#08CCD1" transform="translate(164,315)"/>
<path d="M0 0 C0.99 0 1.98 0 3 0 C8.84562012 10.37597572 8.84562012 10.37597572 8 17 C6.41105928 18.58894072 4.75198576 18.16998411 2.5625 18.1875 C1.35787109 18.20876953 1.35787109 18.20876953 0.12890625 18.23046875 C-2 18 -2 18 -4 16 C-4.22148382 10.13595216 -3.04803498 5.03588388 0 0 Z " fill="#5A4ECE" transform="translate(89,357)"/>
<path d="M0 0 C3.40067483 1.20084712 4.13482775 2.67165267 5.87890625 5.78125 C6.39066406 6.66554688 6.90242188 7.54984375 7.4296875 8.4609375 C8.56640625 10.90625 8.56640625 10.90625 8.56640625 13.90625 C2.31917399 14.72825425 -2.14677212 11.83176394 -7.43359375 8.90625 C-6.66420454 4.27452694 -5.53127239 -0.21308272 0 0 Z " fill="#FF6612" transform="translate(46.43359375,253.09375)"/>
<path d="M0 0 C3.73487777 0.4979837 5.81237635 0.87491756 9 3 C8.67825238 6.20638144 8.29628532 7.68954964 6.0390625 10.0546875 C5.24242187 10.65539062 4.44578125 11.25609375 3.625 11.875 C2.43777344 12.79925781 2.43777344 12.79925781 1.2265625 13.7421875 C0.49179688 14.15726563 -0.24296875 14.57234375 -1 15 C-1.99 14.67 -2.98 14.34 -4 14 C-3.46148032 8.72250715 -2.22656164 4.74354436 0 0 Z " fill="#FFC611" transform="translate(129,225)"/>
<path d="M0 0 C0.66 0.33 1.32 0.66 2 1 C-0.64 3.64 -3.28 6.28 -6 9 C-6 6 -6 6 -3.5625 3.375 C-2.716875 2.59125 -1.87125 1.8075 -1 1 C-0.67 0.67 -0.34 0.34 0 0 Z " fill="#2ED4D8" transform="translate(42,275)"/>
</svg>
