<?xml version="1.0" encoding="UTF-8"?>
<svg version="1.1" xmlns="http://www.w3.org/2000/svg" width="176" height="176">
<path d="M0 0 C1.17504089 -0.00686325 2.35008179 -0.0137265 3.56072998 -0.02079773 C7.4300966 -0.03904097 11.29905678 -0.03523128 15.16845703 -0.02954102 C17.18540741 -0.03201958 19.20234794 -0.03636729 21.21929467 -0.04089409 C27.55607164 -0.0549091 33.89271372 -0.0534039 40.22949219 -0.04199219 C46.74386658 -0.03051911 53.25782887 -0.04457951 59.77214897 -0.07138866 C65.3860375 -0.09361814 70.99979736 -0.10016667 76.61372674 -0.09431225 C79.95750569 -0.090958 83.30081084 -0.09498675 86.64458847 -0.11056328 C90.37795055 -0.12550419 94.11041526 -0.11477154 97.84375 -0.09765625 C98.93601898 -0.10732422 100.02828796 -0.11699219 101.15365601 -0.12695312 C111.49516666 -0.02809181 120.53256832 3.11172102 128.05126953 10.40405273 C135.46094164 19.46031864 137.50240408 27.88662461 137.45532227 39.3527832 C137.46218552 40.5278241 137.46904877 41.70286499 137.47612 42.91351318 C137.49436324 46.78287981 137.49055355 50.65183998 137.48486328 54.52124023 C137.48734184 56.53819062 137.49168956 58.55513114 137.49621636 60.57207787 C137.51023137 66.90885485 137.50872617 73.24549692 137.49731445 79.58227539 C137.48584138 86.09664978 137.49990178 92.61061207 137.52671093 99.12493217 C137.5489404 104.7388207 137.55548893 110.35258057 137.54963452 115.96650994 C137.54628026 119.3102889 137.55030901 122.65359405 137.56588554 125.99737167 C137.58082645 129.73073375 137.57009381 133.46319846 137.55297852 137.1965332 C137.56748047 138.83493668 137.56748047 138.83493668 137.58227539 140.50643921 C137.48341408 150.84794986 134.34360124 159.88535152 127.05126953 167.40405273 C117.99500362 174.81372484 109.56869766 176.85518728 98.10253906 176.80810547 C96.92749817 176.81496872 95.75245728 176.82183197 94.54180908 176.8289032 C90.67244246 176.84714644 86.80348228 176.84333675 82.93408203 176.83764648 C80.91713165 176.84012505 78.90019112 176.84447276 76.8832444 176.84899956 C70.54646742 176.86301457 64.20982534 176.86150937 57.87304688 176.85009766 C51.35867248 176.83862458 44.84471019 176.85268498 38.3303901 176.87949413 C32.71650156 176.90172361 27.1027417 176.90827214 21.48881233 176.90241772 C18.14503337 176.89906347 14.80172822 176.90309222 11.45795059 176.91866875 C7.72458852 176.93360966 3.99212381 176.92287701 0.25878906 176.90576172 C-1.37961441 176.92026367 -1.37961441 176.92026367 -3.05111694 176.93505859 C-13.3926276 176.83619728 -22.43002926 173.69638445 -29.94873047 166.40405273 C-37.35840258 157.34778683 -39.39986501 148.92148086 -39.3527832 137.45532227 C-39.35964645 136.28028137 -39.3665097 135.10524048 -39.37358093 133.89459229 C-39.39182418 130.02522566 -39.38801449 126.15626548 -39.38232422 122.28686523 C-39.38480278 120.26991485 -39.38915049 118.25297432 -39.39367729 116.2360276 C-39.40769231 109.89925062 -39.4061871 103.56260855 -39.39477539 97.22583008 C-39.38330232 90.71145569 -39.39736272 84.19749339 -39.42417186 77.6831733 C-39.44640134 72.06928477 -39.45294987 66.4555249 -39.44709545 60.84159553 C-39.4437412 57.49781657 -39.44776995 54.15451142 -39.46334648 50.8107338 C-39.47828739 47.07737172 -39.46755474 43.34490701 -39.45043945 39.61157227 C-39.46010742 38.51930328 -39.46977539 37.4270343 -39.47973633 36.30166626 C-39.38087502 25.96015561 -36.24106218 16.92275395 -28.94873047 9.40405273 C-19.89246456 1.99438063 -11.4661586 -0.04708181 0 0 Z " fill="#2346FE" transform="translate(38.94873046875,-0.404052734375)"/>
<path d="M0 0 C5.00230198 2.45567552 8.49851535 5.9970307 11 11 C11.76038606 17.70635578 11.27617375 23.58271246 7 29 C3.33037591 32.33675996 -0.24413576 34.27873192 -5.25 34.4375 C-9 34 -9 34 -13 32 C-13.33 36.95 -13.66 41.9 -14 47 C-17.3 47 -20.6 47 -24 47 C-24 31.82 -24 16.64 -24 1 C-21.03 1 -18.06 1 -15 1 C-15 1.66 -15 2.32 -15 3 C-14.17628906 2.27103516 -14.17628906 2.27103516 -13.3359375 1.52734375 C-9.22425258 -1.16106562 -4.73816814 -0.61891891 0 0 Z " fill="#FCFCFF" transform="translate(130,74)"/>
<path d="M0 0 C12.54 0 25.08 0 38 0 C38 2.97 38 5.94 38 9 C33.38 9 28.76 9 24 9 C24 21.21 24 33.42 24 46 C20.7 46 17.4 46 14 46 C14 33.79 14 21.58 14 9 C9.38 9 4.76 9 0 9 C0 6.03 0 3.06 0 0 Z " fill="#F9FAFF" transform="translate(26,60)"/>
<path d="M0 0 C2.97 0 5.94 0 9 0 C9.33 1.32 9.66 2.64 10 4 C10.70125 3.34 11.4025 2.68 12.125 2 C15.43460229 -0.30233203 17.06225823 -0.36630156 21 0 C21 3.3 21 6.6 21 10 C18.98177083 10.390625 16.96354167 10.78125 14.9453125 11.171875 C12.90637853 11.85106532 12.90637853 11.85106532 11.78125 13.59375 C10.69451212 16.94090268 10.5332595 20.26169674 10.375 23.75 C10.31699219 24.79607422 10.31699219 24.79607422 10.2578125 25.86328125 C10.16401376 27.57510818 10.08093826 29.28751682 10 31 C6.7 31 3.4 31 0 31 C0 20.77 0 10.54 0 0 Z " fill="#FBFCFF" transform="translate(62,75)"/>
<path d="M0 0 C3.3 0 6.6 0 10 0 C10 10.23 10 20.46 10 31 C6.7 31 3.4 31 0 31 C0 20.77 0 10.54 0 0 Z " fill="#FFFFFF" transform="translate(88,75)"/>
<path d="M0 0 C2 1.625 2 1.625 3 4 C2.87988224 7.42335626 2.60726153 9.95416069 0.875 12.9375 C-2.22289358 14.69297303 -4.52844534 14.48723574 -8 14 C-10.5 11.9375 -10.5 11.9375 -12 9 C-12 5.19715329 -11.7968187 2.98069994 -9.375 0 C-5.88418213 -1.46981805 -3.60851044 -0.98413921 0 0 Z " fill="#2C4EFF" transform="translate(128,84)"/>
<path d="M0 0 C2.875 0.875 2.875 0.875 4.875 2.875 C5.25 6.3125 5.25 6.3125 4.875 9.875 C3.25 11.875 3.25 11.875 0.875 12.875 C-2.25 12.75 -2.25 12.75 -5.125 11.875 C-7.29051116 8.62673326 -7.67656953 7.64405843 -7.125 3.875 C-4.88889892 0.60685227 -4.01504863 -0.16060195 0 0 Z " fill="#F3AE0D" transform="translate(153.125,95.125)"/>
<path d="M0 0 C1.875 1.0625 1.875 1.0625 3 3 C2.8125 6.625 2.8125 6.625 2 10 C-0.76250036 11.38125018 -2.94731099 11.19079306 -6 11 C-8 9 -8 9 -8.3125 5.5 C-8.209375 4.345 -8.10625 3.19 -8 2 C-4.76746204 -0.15502531 -3.74849077 -0.46856135 0 0 Z " fill="#F8F9FF" transform="translate(96,59)"/>
</svg>
